<svg xmlns="http://www.w3.org/2000/svg" viewBox="46.000000 46.149956 420.000000 420.000000" preserveAspectRatio="xMidYMid meet">
  <g fill="#9CA3AF">
    <path d="M368.5,87.2c-31.1,0-56.3,25.2-56.3,56.3h75c31.1,0,56.3-25.2,56.3-56.3H368.5z"/>
    <path d="M199.8,143.5c0-31.1-25.2-56.3-56.3-56.3h-75c0,31.1,25.2,56.3,56.3,56.3H199.8z"/>
    <path d="M349.8,181h-37.5c-10.4,0-18.8,8.4-18.8,18.8c0,10.4,8.4,18.8,18.8,18.8h37.5c10.3,0,18.8,8.4,18.8,18.8v6.2 c0,9.1-6.5,16.8-15.4,18.4l-78.4,14.3v-138c11.1-6.5,18.7-18.4,18.7-32.2c0-20.7-16.8-37.4-37.4-37.4c-20.7,0-37.4,16.8-37.4,37.4 c0,13.8,7.6,25.7,18.7,32.2v137.9l-78.3-14.2c-8.9-1.6-15.4-9.4-15.4-18.4v-6.2c0-10.3,8.4-18.8,18.8-18.8h37.5 c10.4,0,18.8-8.4,18.8-18.8c0-10.4-8.4-18.8-18.8-18.8h-37.5c-31,0-56.3,25.2-56.3,56.3v6.2c0,27.2,19.4,50.5,46.2,55.3l14.5,2.6 c-14.1,10.3-23.2,26.9-23.2,45.3v3c0,31,25.2,56.3,56.3,56.3h37.5v18.8c0,10.4,8.4,18.8,18.8,18.8c10.4,0,18.8-8.4,18.8-18.8V406 l0,0h37.5c31,0,56.3-25.2,56.3-56.3v-3c0-18.5-9.2-35.1-22.9-45.4l14.2-2.6c26.8-4.9,46.2-28.1,46.2-55.3v-6.2 C406,206.2,380.8,181,349.8,181z M237.2,368.5h-37.5c-10.3,0-18.8-8.4-18.8-18.8v-3c0-9.7,7.6-17.9,19-18.9l37.3-6.8V368.5z M331,349.7c0,10.3-8.4,18.8-18.8,18.8h-37.5l0,0V321l39.1,7.1c9.6,0.8,17.2,9,17.2,18.7V349.7z"/>
  </g>
</svg>